<svg width="40" height="40" viewBox="0 0 40 40" fill="none" xmlns="http://www.w3.org/2000/svg">
<mask id="mask0" mask-type="alpha" maskUnits="userSpaceOnUse" x="0" y="0" width="40" height="40">
<g clip-path="url(#clip0)">
<path d="M4.38621 25.322L3.03696 25.8468C1.01309 26.7088 -0.0363262 27.6083 0.00115297 28.3953C0.11359 29.5572 1.42536 30.4192 3.82403 31.0564C6.9348 31.8809 10.083 32.0683 13.3437 31.5811V28.3204L10.7577 29.2948C8.05917 30.2318 6.67244 29.4448 6.67244 29.4448C6.26017 29.1824 6.07278 28.5453 7.19715 28.133L8.62136 27.6083L13.3437 25.9217V22.1363L12.1444 22.5486L4.38621 25.322Z" fill="#030104"/>
<path d="M24.1002 12.1669V21.874C26.1241 22.8484 27.9231 22.9234 29.2723 21.9114C30.6591 20.937 31.4086 19.2504 31.4086 16.7018C31.4086 14.0408 30.8839 12.0169 29.7221 10.6677C28.6727 9.24349 26.7987 8.04415 24.0252 7.10718C20.5772 5.9828 17.6538 5.00834 15.3301 4.52111V33.5675L21.5891 35.4789V11.3423C21.5516 9.88063 24.1002 9.99307 24.1002 12.1669Z" fill="#030104"/>
<path d="M39.9914 27.1585C39.9539 26.1466 38.7546 25.3595 36.6183 24.6474C34.2196 23.8604 32.1582 23.4856 29.9095 23.5605C27.8481 23.598 25.3745 24.2726 23.1632 24.9847V28.6952L29.2349 26.5589C29.2349 26.5589 31.0713 25.8842 32.6455 26.2965C33.8448 26.5964 33.7698 27.271 32.5705 27.6832L31.1838 28.2454L23.1632 31.1313V34.9167L26.9112 33.5675L35.9061 30.3817L36.9556 29.8945C39.1294 29.1075 40.1038 28.2454 39.9914 27.1585Z" fill="#030104"/>
</g>
</mask>
<g mask="url(#mask0)">
<rect width="40" height="40" fill="url(#paint0_linear)"/>
</g>
<defs>
<linearGradient id="paint0_linear" x1="38.4" y1="7.8392e-07" x2="-2.3365e-06" y2="40" gradientUnits="userSpaceOnUse">
<stop stop-color="#FF0021"/>
<stop offset="1" stop-color="#FF935E"/>
</linearGradient>
<clipPath id="clip0">
<rect width="40" height="40" fill="white"/>
</clipPath>
</defs>
</svg>
