<svg width="40" height="40" viewBox="0 0 40 40" fill="none" xmlns="http://www.w3.org/2000/svg">
<mask id="mask0" mask-type="alpha" maskUnits="userSpaceOnUse" x="0" y="0" width="40" height="40">
<path d="M13.157 30.8057L9.2218 29.286C9.74772 31.3989 11.6557 32.9644 13.9336 32.9644C16.6152 32.9644 18.7922 30.7904 18.7922 28.1058C18.7922 25.4273 16.6152 23.2503 13.9336 23.2503C12.9674 23.2503 12.0685 23.5346 11.3132 24.0208L15.1995 25.519C16.658 26.0847 17.3857 27.7236 16.8231 29.1821C16.2574 30.6436 14.6185 31.3744 13.157 30.8057Z" fill="#030104"/>
<path d="M28.1486 19.4588C31.4692 19.4588 34.1691 16.7589 34.1691 13.4383C34.1691 10.1177 31.4692 7.41783 28.1486 7.41783C24.8311 7.41783 22.1281 10.1177 22.1281 13.4383C22.1281 16.7559 24.8311 19.4588 28.1486 19.4588ZM28.1486 9.19738C30.4907 9.19738 32.3926 11.0992 32.3926 13.4383C32.3926 15.7774 30.4907 17.6793 28.1486 17.6793C25.8095 17.6793 23.9077 15.7774 23.9077 13.4383C23.9077 11.0992 25.8095 9.19738 28.1486 9.19738Z" fill="#030104"/>
<path d="M34.7562 0.00305176H5.24385C2.34521 0.00305176 0 2.35132 0 5.2469V19.6453L7.6288 22.5929C9.10564 20.8837 11.2704 19.789 13.6982 19.7493L18.2816 13.634C18.2816 8.21281 22.6785 3.81898 28.0966 3.81898C33.5178 3.81898 37.9116 8.21281 37.9116 13.634C37.9116 16.6091 36.5846 19.2753 34.4932 21.0763C32.7717 22.5531 30.5397 23.449 28.0966 23.449C27.8398 23.449 27.586 23.4368 27.3353 23.4154L22.0089 27.43C22.0211 27.5982 22.0272 27.7694 22.0272 27.9407C22.0272 32.466 18.358 36.1413 13.8327 36.1413C9.30745 36.1413 5.63828 32.469 5.63828 27.9407C5.63828 27.9284 5.63828 27.9101 5.63828 27.8948L0 25.7178V34.7531C0 37.6487 2.34826 39.9969 5.24385 39.9969H34.7562C37.6517 39.9969 40 37.6487 40 34.7531V5.24996C40 2.35437 37.6517 0.00305176 34.7562 0.00305176Z" fill="#030104"/>
</mask>
<g mask="url(#mask0)">
<rect width="40" height="40" fill="url(#paint0_linear)"/>
</g>
<defs>
<linearGradient id="paint0_linear" x1="38.4" y1="7.8392e-07" x2="-2.3365e-06" y2="40" gradientUnits="userSpaceOnUse">
<stop stop-color="#FF0021"/>
<stop offset="1" stop-color="#FF935E"/>
</linearGradient>
</defs>
</svg>
