<svg width="40" height="40" viewBox="0 0 40 40" fill="none" xmlns="http://www.w3.org/2000/svg">
<mask id="mask0" mask-type="alpha" maskUnits="userSpaceOnUse" x="0" y="0" width="40" height="40">
<path d="M31.0156 0H21.9531V40H31.0156C35.9696 40 40 35.9696 40 31.0156V8.98438C40 4.03039 35.9696 0 31.0156 0ZM30.9766 25.9375C28.3704 25.9375 26.25 23.8171 26.25 21.2109C26.25 18.6048 28.3704 16.4844 30.9766 16.4844C33.5827 16.4844 35.7031 18.6048 35.7031 21.2109C35.7031 23.8171 33.5827 25.9375 30.9766 25.9375Z" fill="#FF0021"/>
<path d="M19.6094 40H8.98438C4.03039 40 0 35.9696 0 31.0156V8.98438C0 4.03039 4.03039 0 8.98438 0H19.6094V40ZM8.98438 2.34375C5.32273 2.34375 2.34375 5.32273 2.34375 8.98438V31.0156C2.34375 34.6773 5.32273 37.6562 8.98438 37.6562H17.2656V2.34375H8.98438Z" fill="#FF0021"/>
<path d="M9.80469 16.4844C7.19852 16.4844 5.07812 14.364 5.07812 11.7578C5.07812 9.15164 7.19852 7.03125 9.80469 7.03125C12.4109 7.03125 14.5312 9.15164 14.5312 11.7578C14.5312 14.364 12.4109 16.4844 9.80469 16.4844Z" fill="#FF0021"/>
</mask>
<g mask="url(#mask0)">
<rect width="40" height="40" fill="url(#paint0_linear)"/>
</g>
<defs>
<linearGradient id="paint0_linear" x1="38.4" y1="7.8392e-07" x2="-2.3365e-06" y2="40" gradientUnits="userSpaceOnUse">
<stop stop-color="#FF0021"/>
<stop offset="1" stop-color="#FF935E"/>
</linearGradient>
</defs>
</svg>
